<?xml version="1.0" encoding="utf-8"?>
<!-- Generator: Adobe Illustrator 25.0.1, SVG Export Plug-In . SVG Version: 6.00 Build 0)  -->
<svg version="1.1" id="Layer_1" xmlns="http://www.w3.org/2000/svg" xmlns:xlink="http://www.w3.org/1999/xlink" x="0px" y="0px"
	 viewBox="0 0 97.7 97.6" style="enable-background:new 0 0 97.7 97.6;" xml:space="preserve">
<style type="text/css">
	.st0{fill:#1D1D1B;}
</style>
<path class="st0" d="M44.7,76H39V42.1c-0.2-1.5-0.9-8.8,3.3-13.9c2.7-3.2,6.6-4.7,11.6-4.7h8.3v5.7h-8.3c-3.3,0-5.7,0.9-7.3,2.7
	c-3,3.5-2,9.5-2,9.5v0.5L44.7,76L44.7,76z"/>
<rect x="32" y="40.2" class="st0" width="29.5" height="5.7"/>
<path class="st0" d="M74.7,96.5H23.6c-12.2,0-22.2-10-22.2-22.2V23.2C1.4,11,11.4,1,23.6,1h51.1C87,1,96.9,11,96.9,23.2v51.1
	C96.9,86.5,87,96.5,74.7,96.5z M23.6,6.7c-9.1,0-16.5,7.4-16.5,16.5v51.1c0,9.1,7.4,16.5,16.5,16.5h51.1c9.1,0,16.5-7.4,16.5-16.5
	V23.2c0-9.1-7.4-16.5-16.5-16.5C74.7,6.7,23.6,6.7,23.6,6.7z"/>
</svg>
