<svg xmlns="http://www.w3.org/2000/svg" viewBox="0 0 13.81 16.13"><g id="Layer_2" data-name="Layer 2"><g id="Layer_1-2" data-name="Layer 1"><path d="M10,3.67l-.11,0a1.06,1.06,0,0,0-.55-.06l.11-.21A1.17,1.17,0,0,0,9,1.85l-.12-.07a1.15,1.15,0,0,0-.68-.12A1.15,1.15,0,0,0,7.82.25L7.7.18h0A1.12,1.12,0,0,0,6.82.11a1.08,1.08,0,0,0-.63.5A1.24,1.24,0,0,0,5.81.2L5.7.13A1.22,1.22,0,0,0,4.8.05a1.18,1.18,0,0,0-.69.57L2.33,4.09l-.11-.34a1.09,1.09,0,0,0-.56-.65A1.14,1.14,0,0,0,.79,3,1.16,1.16,0,0,0,0,4.43l.71,4-.27.64a.8.8,0,0,0,.37,1l.54.28C1.81,9.73,3.11,8,3.25,7.6l1-1.14c.56-.34,1.42.59.8,2l4.42-1.3,1-2A1.13,1.13,0,0,0,10,3.67ZM3,7.77A16.88,16.88,0,0,1,1.64,9.89L1.1,9.61h0A.26.26,0,0,1,1,9.28l.33-.79h0L.58,4.31A.6.6,0,0,1,1,3.55a.6.6,0,0,1,.46,0,.58.58,0,0,1,.3.35l.33.93A.23.23,0,0,0,2.17,5a.26.26,0,0,0,.36-.13L4.6.87A.62.62,0,0,1,5.43.61l.06,0a.62.62,0,0,1,.19.8L4.26,4.22a.29.29,0,0,0,.13.39.3.3,0,0,0,.4-.13L6.62.92A.6.6,0,0,1,7.44.66l.07,0a.62.62,0,0,1,.19.8L5.88,5a.29.29,0,1,0,.52.27L7.83,2.52a.63.63,0,0,1,.83-.26l.06,0a.62.62,0,0,1,.2.8L7.5,5.86a.3.3,0,0,0,.13.41h0A.27.27,0,0,0,8,6.15l.88-1.71a.62.62,0,0,1,.76-.31l0,0A.6.6,0,0,1,10,5l-1,2C8.46,7.87,5.11,8.2,5.11,8.2c.47-1.22-.42-2-.91-1.74A1.54,1.54,0,0,0,3.48,7Z"/><path d="M11.08,13,11,12.91a1.14,1.14,0,0,0-.36-.42l.23-.08a1.15,1.15,0,0,0,.76-1.34.61.61,0,0,0,0-.13,1.18,1.18,0,0,0-.41-.55,1.16,1.16,0,0,0,.68-1.31.65.65,0,0,0,0-.13h0a1.14,1.14,0,0,0-1.39-.73,1.06,1.06,0,0,0,0-.56l0-.13a1.23,1.23,0,0,0-.59-.68A1.2,1.2,0,0,0,9,6.78L5.28,8.06l.15-.32a1.12,1.12,0,0,0,.05-.86,1.1,1.1,0,0,0-.58-.65,1.15,1.15,0,0,0-1.51.49L1.14,10.09l-.64.28a.8.8,0,0,0-.44,1l1.47,4.23a.8.8,0,0,0,.92.52l.81-.17a6.17,6.17,0,0,0,2.31,0,16.06,16.06,0,0,0,2.68-.73l2.11-.72A1.15,1.15,0,0,0,11.08,13ZM2.34,15.58a.27.27,0,0,1-.3-.17L.57,11.19h0a.26.26,0,0,1,.14-.32l.79-.34h0L3.86,7a.61.61,0,0,1,.81-.28.61.61,0,0,1,.3.35.57.57,0,0,1,0,.46l-.4.9a.22.22,0,0,0,0,.19.27.27,0,0,0,.35.16L9.15,7.3a.63.63,0,0,1,.8.46.62.62,0,0,1-.42.7l-2.94,1a.3.3,0,0,0-.19.38.31.31,0,0,0,.38.18l3.79-1.31a.62.62,0,0,1,.78.39.25.25,0,0,0,0,.07A.63.63,0,0,1,11,9.9L7.18,11.2a.3.3,0,0,0-.18.38.29.29,0,0,0,.37.18l3-1a.61.61,0,0,1,.77.39.14.14,0,0,1,0,.07.62.62,0,0,1-.41.71l-2.94,1a.31.31,0,0,0-.18.39h0a.28.28,0,0,0,.35.17l1.83-.63a.62.62,0,0,1,.76.3l0,0a.6.6,0,0,1-.38.76l-2.1.73a9.35,9.35,0,0,1-4.76.69H3.21Z"/><path d="M13.18,7.83l-.07,0a.24.24,0,0,1-.06-.32,2.61,2.61,0,0,0,.18-2.07,3,3,0,0,0-1.56-2,.21.21,0,0,1-.11-.3.22.22,0,0,1,.3-.11,3.48,3.48,0,0,1,1.81,2.26,3.09,3.09,0,0,1-.24,2.45A.21.21,0,0,1,13.18,7.83Z"/></g></g></svg>