<?xml version="1.0" encoding="utf-8"?>
<!-- Generator: Adobe Illustrator 25.0.1, SVG Export Plug-In . SVG Version: 6.00 Build 0)  -->
<svg version="1.1" id="Layer_1" xmlns="http://www.w3.org/2000/svg" xmlns:xlink="http://www.w3.org/1999/xlink" x="0px" y="0px"
	 viewBox="0 0 97.7 97.6" style="enable-background:new 0 0 97.7 97.6;" xml:space="preserve">
<style type="text/css">
	.st0{fill:#1D1D1B;}
</style>
<path class="st0" d="M74.7,97.3H23.6c-12.2,0-22.2-10-22.2-22.2V24c0-12.2,10-22.2,22.2-22.2h51.1c12.2,0,22.2,10,22.2,22.2v51
	C96.9,87.3,87,97.3,74.7,97.3z M23.6,7.5C14.5,7.5,7.1,14.9,7.1,24v51c0,9.1,7.4,16.5,16.5,16.5h51.1c9.1,0,16.5-7.4,16.5-16.5V24
	c0-9.1-7.4-16.5-16.5-16.5H23.6z"/>
<path class="st0" d="M49.2,77.7c-15.6,0-28.3-12.7-28.3-28.2s12.7-28.3,28.3-28.3s28.2,12.7,28.2,28.3S64.7,77.7,49.2,77.7z
	 M49.2,27c-12.4,0-22.6,10.1-22.6,22.5S36.7,72,49.2,72c12.4,0,22.5-10.1,22.5-22.5S61.6,27,49.2,27z"/>
<circle class="st0" cx="77" cy="21.2" r="5.4"/>
</svg>
