<?xml version="1.0" encoding="utf-8"?>
<!-- Generator: Adobe Illustrator 25.0.1, SVG Export Plug-In . SVG Version: 6.00 Build 0)  -->
<svg version="1.1" id="Layer_1" xmlns="http://www.w3.org/2000/svg" xmlns:xlink="http://www.w3.org/1999/xlink" x="0px" y="0px"
	 viewBox="0 0 97.7 97.6" style="enable-background:new 0 0 97.7 97.6;" xml:space="preserve">
<style type="text/css">
	.st0{fill:#1D1D1B;}
</style>
<path class="st0" d="M18.4,56.6c-1.4,0-2.5-1.1-2.5-2.5V41.5c0-1.4,1.1-2.5,2.5-2.5s2.5,1.1,2.5,2.5v12.6
	C20.9,55.5,19.8,56.6,18.4,56.6z"/>
<path class="st0" d="M28.3,62c-1.4,0-2.5-1.1-2.5-2.5V36.1c0-1.4,1.1-2.5,2.5-2.5s2.5,1.1,2.5,2.5v23.4C30.8,60.9,29.6,62,28.3,62z"
	/>
<path class="st0" d="M39.3,71c-1.4,0-2.5-1.1-2.5-2.5V27c0-1.4,1.1-2.5,2.5-2.5s2.5,1.1,2.5,2.5v41.5C41.8,69.9,40.6,71,39.3,71z"/>
<path class="st0" d="M50.3,63.1c-1.4,0-2.5-1.1-2.5-2.5V35c0-1.4,1.1-2.5,2.5-2.5s2.5,1.1,2.5,2.5v25.6C52.8,62,51.6,63.1,50.3,63.1
	z"/>
<path class="st0" d="M81.1,53.7c-1.4,0-2.5-1.1-2.5-2.5v-6.7c0-1.4,1.1-2.5,2.5-2.5s2.5,1.1,2.5,2.5v6.7
	C83.6,52.5,82.5,53.7,81.1,53.7z"/>
<path class="st0" d="M61.3,59c-1.4,0-2.5-1.1-2.5-2.5V39.1c0-1.4,1.1-2.5,2.5-2.5s2.5,1.1,2.5,2.5v17.3C63.8,57.8,62.6,59,61.3,59z"
	/>
<path class="st0" d="M72.3,68c-1.4,0-2.5-1.1-2.5-2.5V30.1c0-1.4,1.1-2.5,2.5-2.5s2.5,1.1,2.5,2.5v35.4C74.8,66.9,73.6,68,72.3,68z"
	/>
<path class="st0" d="M74.7,96.5H23.6c-12.2,0-22.2-10-22.2-22.2V23.2C1.4,11,11.4,1,23.6,1h51.1C87,1,96.9,11,96.9,23.2v51.1
	C96.9,86.5,87,96.5,74.7,96.5z M23.6,6.7c-9.1,0-16.5,7.4-16.5,16.5v51.1c0,9.1,7.4,16.5,16.5,16.5h51.1c9.1,0,16.5-7.4,16.5-16.5
	V23.2c0-9.1-7.4-16.5-16.5-16.5C74.7,6.7,23.6,6.7,23.6,6.7z"/>
</svg>
