<?xml version="1.0" encoding="utf-8"?>
<!-- Generator: Adobe Illustrator 25.0.1, SVG Export Plug-In . SVG Version: 6.00 Build 0)  -->
<svg version="1.1" id="Layer_1" xmlns="http://www.w3.org/2000/svg" xmlns:xlink="http://www.w3.org/1999/xlink" x="0px" y="0px"
	 viewBox="0 0 97.7 97.6" style="enable-background:new 0 0 97.7 97.6;" xml:space="preserve">
<style type="text/css">
	.st0{fill:#1D1D1B;}
</style>
<path class="st0" d="M74.7,96.5H23.6c-12.3,0-22.2-10-22.2-22.2V23.2C1.4,10.9,11.4,1,23.6,1h51.1C87,1,96.9,10.9,96.9,23.2v51.1
	C96.9,86.5,87,96.5,74.7,96.5z M23.6,6.7c-9.1,0-16.5,7.4-16.5,16.5v51.1c0,9.1,7.4,16.5,16.5,16.5h51.1c9.1,0,16.5-7.4,16.5-16.5
	V23.2c0-9.1-7.4-16.5-16.5-16.5C74.7,6.7,23.6,6.7,23.6,6.7z"/>
<path class="st0" d="M37.7,69.1c-1.3,0-2.5-0.3-3.6-1c-1.4-0.8-3.7-2.9-3.7-7.9c0-3,0-6,0-9v-1.4v-2.5c0-1.4,0-2.7,0-4.1
	c0-3.1,0-6.3,0-9.4c0-3.3,1.4-6,3.8-7.4s5.4-1.2,8.3,0.4l10.2,5.6c4.8,2.6,9.6,5.2,14.4,7.8c1.3,0.7,4.9,2.7,5,7.2
	c0,4.3-2.9,6.3-5.1,7.5c-4.3,2.3-8.6,4.5-12.8,6.8c-3.8,2.1-7.7,4.1-11.5,6.1C41.2,68.6,39.5,69.1,37.7,69.1z M36.1,44.4L36.1,44.4
	v6.8c0,3,0,6,0,9c0,1.8,0.5,2.8,0.9,3.1s1.5,0.2,3-0.6c3.8-2,7.7-4.1,11.5-6.1c4.3-2.3,8.5-4.6,12.8-6.8c1.9-1,2.1-1.7,2.1-2.4
	s-0.2-1.2-2-2.2c-4.8-2.6-9.6-5.3-14.4-7.9l-10.2-5.6c-1.1-0.6-2.2-0.8-2.7-0.5c-0.7,0.7-1,1.6-0.9,2.6c0,3.1,0,6.3,0,9.3
	C36.1,43.5,36.1,44,36.1,44.4z"/>
</svg>
